<svg width="43" height="24" viewBox="0 0 43 24" fill="none" xmlns="http://www.w3.org/2000/svg">
<path d="M33.335 13.3333H9.33498C8.58831 13.3333 8.00165 12.7466 8.00165 12C8.00165 11.2533 8.58831 10.6666 9.33498 10.6666H33.335C34.0816 10.6666 34.6683 11.2533 34.6683 12C34.6683 12.7466 34.0816 13.3333 33.335 13.3333Z" fill="black"/>
<path d="M26.6684 22.6667C26.4935 22.6688 26.3201 22.6343 26.1594 22.5655C25.9986 22.4966 25.8541 22.3948 25.735 22.2667C25.2017 21.7334 25.2017 20.9067 25.735 20.3734L34.135 11.9734L25.735 3.57336C25.2017 3.04003 25.2017 2.21336 25.735 1.68003C26.2684 1.1467 27.095 1.1467 27.6284 1.68003L36.9617 11.0134C37.495 11.5467 37.495 12.3734 36.9617 12.9067L27.6284 22.24C27.3617 22.5067 27.015 22.64 26.695 22.64L26.6684 22.6667Z" fill="black"/>
</svg>
